<svg xmlns="http://www.w3.org/2000/svg" viewBox="0 0 15.23 18.1"><defs><style>.cls-1{fill:#58c1ba;}</style></defs><title>ic_logout</title><g id="Layer_2" data-name="Layer 2"><g id="Layer_1-2" data-name="Layer 1"><path class="cls-1" d="M5.63,10h6.8v2.4s0,.1.1,0l2.7-3.3V9l-2.7-3.3h-.1v2.4H5.63V10Z"/><path class="cls-1" d="M6,16.1H2a.1.1,0,0,1-.1-.1L2,2.1A.1.1,0,0,1,2.1,2H5.4a6.73,6.73,0,0,1,.1-2L2.1.1a2,2,0,0,0-2,2L0,16a2.09,2.09,0,0,0,2,2.1H6Z"/><path class="cls-1" d="M9.79,12H7.89a.1.1,0,0,0-.1.1V16a.1.1,0,0,1-.1.1H4.29a4.87,4.87,0,0,1-.1,1.2v.8h3.4a2.09,2.09,0,0,0,2.1-2l.1-4.1Z"/><path class="cls-1" d="M7.64.1H4.84c0,.4-.1.8-.1,1.1V2h2.9a.1.1,0,0,1,.1.1V6a.1.1,0,0,0,.1.1h1.9a.1.1,0,0,0,.1-.1V2.1A2.19,2.19,0,0,0,7.64.1Z"/></g></g></svg>