<svg xmlns="http://www.w3.org/2000/svg" xmlns:xlink="http://www.w3.org/1999/xlink" viewBox="0 0 52.43 72.93"><defs><style>.cls-1{fill:url(#linear-gradient);}.cls-2{fill:url(#linear-gradient-2);}.cls-3{fill:url(#linear-gradient-3);}</style><linearGradient id="linear-gradient" y1="36.46" x2="52.43" y2="36.46" gradientUnits="userSpaceOnUse"><stop offset="0" stop-color="#59beb9"/><stop offset="1" stop-color="#5790c1"/></linearGradient><linearGradient id="linear-gradient-2" x1="6.31" y1="33.11" x2="46.13" y2="33.11" xlink:href="#linear-gradient"/><linearGradient id="linear-gradient-3" x1="6.31" y1="39.8" x2="46.13" y2="39.8" xlink:href="#linear-gradient"/></defs><title>icon-sharing</title><g id="Layer_2" data-name="Layer 2"><g id="Layer_1-2" data-name="Layer 1"><path class="cls-1" d="M26.21,72.93A26.24,26.24,0,0,1,0,46.71V26.21a26.21,26.21,0,1,1,52.43,0v20.5A26.24,26.24,0,0,1,26.21,72.93Zm0-70.79A24.11,24.11,0,0,0,2.13,26.21v20.5a24.08,24.08,0,1,0,48.16,0V26.21A24.11,24.11,0,0,0,26.21,2.13Z"/><path class="cls-2" d="M46.13,26V37.43A10.24,10.24,0,0,0,44,34.16V26A17.78,17.78,0,1,0,8.45,26v3.7c0,3.53.93,6,2.85,7.57,3.26,2.66,3.15,7.2,3.14,7.4v1.59A11.69,11.69,0,1,0,26.12,34.6H25.9A7.68,7.68,0,1,1,33.74,26H35a.15.15,0,0,1,.11.25l-2.28,2.53a.14.14,0,0,1-.21,0l-2.28-2.53A.15.15,0,0,1,30.4,26h1.18A5.54,5.54,0,1,0,26,32.45h.19A13.83,13.83,0,1,1,12.3,46.29V44.66c0-.07.09-3.72-2.35-5.71s-3.64-5.08-3.64-9.23V26a19.91,19.91,0,1,1,39.82,0Z"/><path class="cls-3" d="M46.13,43.12v3.82a19.91,19.91,0,1,1-39.82,0V35.75A10.18,10.18,0,0,0,8.45,39v7.93a17.78,17.78,0,1,0,35.56,0V43.12c0-3.53-.93-6-2.85-7.57C37.89,32.89,38,28.35,38,28.15V26.56A11.69,11.69,0,1,0,26.32,38.25h.23a7.68,7.68,0,1,1-7.74,9.26H17.47a.15.15,0,0,1-.12-.25l2.28-2.54a.15.15,0,0,1,.22,0l2.27,2.54a.15.15,0,0,1-.11.25H21a5.55,5.55,0,1,0,5.47-7.13h-.19A13.82,13.82,0,1,1,40.15,26.56v1.62c0,.07-.09,3.73,2.35,5.71S46.13,39,46.13,43.12Z"/></g></g></svg>