<svg xmlns="http://www.w3.org/2000/svg" xmlns:xlink="http://www.w3.org/1999/xlink" viewBox="0 0 827.58 121.69"><defs><style>.cls-1{fill:#fff;}.cls-2{fill:url(#linear-gradient);}.cls-3{fill:url(#linear-gradient-2);}.cls-4{fill:url(#linear-gradient-3);}</style><linearGradient id="linear-gradient" y1="60.85" x2="87.49" y2="60.85" gradientUnits="userSpaceOnUse"><stop offset="0" stop-color="#59beb9"/><stop offset="1" stop-color="#5790c1"/></linearGradient><linearGradient id="linear-gradient-2" x1="10.53" y1="55.25" x2="76.98" y2="55.25" xlink:href="#linear-gradient"/><linearGradient id="linear-gradient-3" x1="10.53" y1="66.41" x2="76.98" y2="66.41" xlink:href="#linear-gradient"/></defs><title>logo-lt</title><g id="Layer_2" data-name="Layer 2"><g id="Layer_1-2" data-name="Layer 1"><path class="cls-1" d="M149.42,68.2a10.67,10.67,0,0,1-3.61,7.64A11.71,11.71,0,0,1,137.65,79a15.18,15.18,0,0,1-7.36-1.77,9.56,9.56,0,0,1-5-6.15,2.91,2.91,0,0,1,.3-2.24,2.86,2.86,0,0,1,1.82-1.36,2.91,2.91,0,0,1,2.24.3A2.86,2.86,0,0,1,131,69.56a4.18,4.18,0,0,0,2.47,2.65,9.82,9.82,0,0,0,4.13.83,5.93,5.93,0,0,0,4.06-1.49,4.91,4.91,0,0,0,1.82-3.63,3.13,3.13,0,0,0-.93-2.35q-1.56-1.66-5.24-1.71h-.13q-6.18-.1-9.46-3.56a8.82,8.82,0,0,1-2.52-6.68A10.69,10.69,0,0,1,128.85,46,11.66,11.66,0,0,1,137,42.83a15.19,15.19,0,0,1,7.36,1.76,9.57,9.57,0,0,1,5,6.15A2.84,2.84,0,0,1,149,53a2.77,2.77,0,0,1-1.79,1.36,2.91,2.91,0,0,1-2.24-.3,2.86,2.86,0,0,1-1.36-1.81,4.18,4.18,0,0,0-2.5-2.65,9.65,9.65,0,0,0-4.11-.83,6,6,0,0,0-4.09,1.49,5,5,0,0,0-1.79,3.63,3.21,3.21,0,0,0,.93,2.37q1.56,1.64,5.24,1.69h.13q6.18.1,9.46,3.58A8.77,8.77,0,0,1,149.42,68.2Z"/><path class="cls-1" d="M193.74,79a3,3,0,0,1-3-3V63.88H175.21V76a2.93,2.93,0,0,1-.86,2.12A3,3,0,0,1,169.23,76V45.83a3,3,0,0,1,5.12-2.12,2.93,2.93,0,0,1,.86,2.12V57.91h15.53V45.83a3,3,0,0,1,6,0V76a3,3,0,0,1-3,3Z"/><path class="cls-1" d="M217.38,78.73a3,3,0,0,1-1.61-3.88l3.2-7.69v0l9.28-22.39a1.75,1.75,0,0,1,.13-.25l.05-.13.1-.13a.71.71,0,0,1,.08-.13l.1-.1s0-.05.08-.1l.1-.11a.27.27,0,0,1,.1-.09c.07-.07.11-.1.13-.1s0,0,.1-.08l.13-.1.1-.08.15-.08.18-.08.08-.05.1-.05.18-.05.18-.05.1,0,.18,0,.13,0h.58l.15,0,.13,0,.18.05.1,0a2,2,0,0,1,.55.23l.1.05.15.1.1.08.13.1s.05,0,.1.08a.53.53,0,0,0,.13.1.44.44,0,0,0,.08.1c.07.07.1.11.1.13l.08.1.1.11a.29.29,0,0,0,.08.14.38.38,0,0,1,.08.13,1.84,1.84,0,0,1,.13.25L243,67.14v0l3.2,7.69A3,3,0,0,1,243.45,79a2.74,2.74,0,0,1-2.75-1.84l-2.42-5.85h-14.6l-2.42,5.85A2.74,2.74,0,0,1,218.51,79h-.58Zm18.46-13.39L231,53.65l-4.84,11.7Z"/><path class="cls-1" d="M288.37,53.27a9.66,9.66,0,0,1-2.07,6,10.82,10.82,0,0,1-5.24,3.81l5.72,11.6a3,3,0,0,1-1.36,4,3,3,0,0,1-1.31.3,2.74,2.74,0,0,1-2.65-1.66l-6.68-13.54h-5.12v12a3,3,0,0,1-3,3,2.93,2.93,0,0,1-3-3V45.73a3,3,0,0,1,3-3h10.44a11.19,11.19,0,0,1,7.94,3.08A9.8,9.8,0,0,1,288.37,53.27Zm-11,4.56A5.68,5.68,0,0,0,281,56.45a4.15,4.15,0,0,0-.08-6.43,5.59,5.59,0,0,0-3.76-1.34h-7.46v9.15Z"/><path class="cls-1" d="M310.32,79a3,3,0,0,1-3-3V45.91a3,3,0,0,1,6,0V76a3,3,0,0,1-3,3Z"/><path class="cls-1" d="M358.62,77.83h0v0L340.47,54.48V76a3,3,0,0,1-6,0V45.78a2.82,2.82,0,0,1,.56-1.71A2.86,2.86,0,0,1,336.53,43a2.8,2.8,0,0,1,1.82-.05,2.9,2.9,0,0,1,1.49,1L358,67.31V45.78a2.85,2.85,0,0,1,.86-2.09,2.89,2.89,0,0,1,2.12-.88,3,3,0,0,1,3,3V76a.7.7,0,0,1,0,.15v.13a.7.7,0,0,1,0,.15.35.35,0,0,1,0,.15l0,.13a.38.38,0,0,1-.05.15.88.88,0,0,1-.05.13.81.81,0,0,1-.05.15l-.05.13-.08.13-.08.15-.08.08-.1.15-.08.1-.1.1c-.05.07-.08.1-.1.1s0,.05-.1.1a.53.53,0,0,1-.13.1c.05,0,0,0,0,0l0,0a3.7,3.7,0,0,1-.38.25h0l-.4.18-.05,0a1.76,1.76,0,0,1-.43.1l-.08,0-.43,0-.33,0s0,0-.05,0l-.25-.05s0,0-.1,0l-.2-.05-.1-.05a.55.55,0,0,1-.2-.08.14.14,0,0,1-.1-.05l-.18-.08-.1-.08-.18-.13-.1-.08-.23-.2,0,0v0l-.1-.1Z"/><path class="cls-1" d="M401,78.86A18.08,18.08,0,0,1,383,60.81a18.08,18.08,0,0,1,18.05-18,17.5,17.5,0,0,1,11,3.73,3,3,0,0,1,1.16,2,2.89,2.89,0,0,1-.6,2.19,3,3,0,0,1-4.19.55,12.07,12.07,0,0,0-15.88,18.1,12.07,12.07,0,0,0,16.67.38l.18-.15,0-6.61h-9.86a3,3,0,0,1-2.12-5.09,2.84,2.84,0,0,1,2.12-.88h12.86a3,3,0,0,1,3,3l-.08,16a3,3,0,0,1-3,3h0a2.88,2.88,0,0,1-1.82-.63,2.84,2.84,0,0,1-1-1.54A17.88,17.88,0,0,1,401,78.86Z"/><path class="cls-1" d="M471.12,42.78a10.69,10.69,0,0,1,7.54,2.9,9.28,9.28,0,0,1,.18,13.69,10.74,10.74,0,0,1-7.11,3.05h-.51l-.1,0c.05,0,0,0-.08,0h-9.91v15a1.51,1.51,0,0,1-3,0V44.29a1.55,1.55,0,0,1,1.51-1.51Zm.2,16.64a7.83,7.83,0,0,0,5.24-2,6.28,6.28,0,0,0-.05-9.58,7.85,7.85,0,0,0-5.4-2h-10V59.42Z"/><path class="cls-1" d="M522.29,42.88a1.49,1.49,0,0,1,1.06.43,1.44,1.44,0,0,1,.43,1.06V66.58a12.38,12.38,0,0,1-24.76,0V44.37a1.46,1.46,0,0,1,1.49-1.49,1.41,1.41,0,0,1,1,.43,1.44,1.44,0,0,1,.43,1.06V66.58a9.43,9.43,0,0,0,18.86,0V44.37a1.44,1.44,0,0,1,.43-1.06A1.41,1.41,0,0,1,522.29,42.88Z"/><path class="cls-1" d="M556.77,42.86a10.65,10.65,0,0,1,7.46,2.85,9.19,9.19,0,0,1,.55,13.19,10.33,10.33,0,0,1-6.23,3.28l7.19,14.65a1.41,1.41,0,0,1,.08,1.14,1.47,1.47,0,0,1-.76.86,1.45,1.45,0,0,1-.66.15,1.38,1.38,0,0,1-1.34-.83l-7.79-15.81h-8.42v14.9a1.51,1.51,0,0,1-1.51,1.49,1.47,1.47,0,0,1-1.49-1.49V44.34a1.44,1.44,0,0,1,.43-1.06,1.49,1.49,0,0,1,1.06-.43Zm7.56,9.73a6.14,6.14,0,0,0-2.22-4.77,7.73,7.73,0,0,0-5.35-2h-9.91V59.32h10.09a7.63,7.63,0,0,0,5.22-2A6.15,6.15,0,0,0,564.34,52.59Z"/><path class="cls-1" d="M601.74,79a18.16,18.16,0,0,1-18.1-18.1,18.16,18.16,0,0,1,18.1-18.13,17.6,17.6,0,0,1,11,3.76,1.43,1.43,0,0,1,.58,1,1.45,1.45,0,0,1-.3,1.11,1.42,1.42,0,0,1-1,.58,1.32,1.32,0,0,1-1.11-.3,14.76,14.76,0,0,0-9.2-3.1,15.06,15.06,0,0,0-15.05,15.08A15.08,15.08,0,0,0,611.91,72a1.53,1.53,0,0,1,2.55,1.18,1.45,1.45,0,0,1-.5,1.06A17.51,17.51,0,0,1,601.74,79Z"/><path class="cls-1" d="M657.46,79a1.48,1.48,0,0,1-1.08-.45,1.44,1.44,0,0,1-.43-1.06v-15h-20.6v15a1.44,1.44,0,0,1-.43,1.06,1.48,1.48,0,0,1-1.08.45,1.55,1.55,0,0,1-1.51-1.51V44.34a1.55,1.55,0,0,1,1.51-1.51,1.48,1.48,0,0,1,1.08.45,1.44,1.44,0,0,1,.43,1.06v15h20.6v-15a1.44,1.44,0,0,1,.43-1.06,1.48,1.48,0,0,1,1.08-.45A1.55,1.55,0,0,1,659,44.34V77.45A1.55,1.55,0,0,1,657.46,79Z"/><path class="cls-1" d="M677.72,78.84a1.36,1.36,0,0,1-.81-.81,1.39,1.39,0,0,1,0-1.16l3.5-8.45v0l10.21-24.63c0-.08.08-.18.13-.28l.1-.1.1-.13.13-.1.1-.08a1.34,1.34,0,0,1,.53-.23h.13l.18,0,.15,0h.13a1.35,1.35,0,0,1,.55.23l.1.08c.07.07.11.1.13.1l.1.13.1.12a1.88,1.88,0,0,1,.13.26L703.61,68.4v0l3.5,8.45a1.4,1.4,0,0,1,0,1.16,1.36,1.36,0,0,1-.81.81,1.47,1.47,0,0,1-2-.81l-3.13-7.51H682.81L679.69,78a1.38,1.38,0,0,1-1.39.93H678ZM700,67.49l-8-19.21-8,19.21Z"/><path class="cls-1" d="M734.29,62.37q-6.05-.08-9.13-3.35a8,8,0,0,1-2.32-6.08,10,10,0,0,1,3.45-7.21,11.07,11.07,0,0,1,7.74-3,14.9,14.9,0,0,1,7.11,1.66,8.83,8.83,0,0,1,4.74,5.72A1.46,1.46,0,0,1,744.8,52a1.35,1.35,0,0,1-1.13-.15,1.39,1.39,0,0,1-.68-.91,6.06,6.06,0,0,0-3.53-4A12.19,12.19,0,0,0,734,45.78a8.22,8.22,0,0,0-5.67,2.12,7.21,7.21,0,0,0-2.52,5.19,5.07,5.07,0,0,0,1.51,3.86q2.19,2.35,7,2.42a1.51,1.51,0,0,1,1.49,1.54,1.51,1.51,0,0,1-1.51,1.46Zm-6.66,15a8.91,8.91,0,0,1-4.74-5.75,1.5,1.5,0,0,1,.15-1.14,1.48,1.48,0,0,1,.93-.68,1.5,1.5,0,0,1,1.14.15,1.48,1.48,0,0,1,.68.91,6.13,6.13,0,0,0,3.53,4A12.41,12.41,0,0,0,734.74,76a8.22,8.22,0,0,0,5.67-2.12,7.18,7.18,0,0,0,2.52-5.17,5.1,5.1,0,0,0-1.51-3.88q-2.19-2.35-7-2.42a1.4,1.4,0,0,1-1.06-.45,1.46,1.46,0,0,1,.05-2.12,1.44,1.44,0,0,1,1.06-.43q6.05.1,9.13,3.38a7.88,7.88,0,0,1,2.29,6.05A10,10,0,0,1,742.48,76a11.07,11.07,0,0,1-7.74,3A15.07,15.07,0,0,1,727.63,77.32Z"/><path class="cls-1" d="M766.35,79a1.55,1.55,0,0,1-1.51-1.51V44.27a1.4,1.4,0,0,1,.45-1.06,1.33,1.33,0,0,1,1.06-.45l20,.05a1.4,1.4,0,0,1,1.06.45,1.45,1.45,0,0,1,.45,1.06,1.48,1.48,0,0,1-.45,1.08,1.44,1.44,0,0,1-1.06.43l-18.51-.05V59.35H781.7a1.51,1.51,0,0,1,0,3H767.86V75.94h18.51a1.51,1.51,0,0,1,0,3Z"/><path class="cls-1" d="M815.93,62.37q-6.05-.08-9.13-3.35a8,8,0,0,1-2.32-6.08,10,10,0,0,1,3.45-7.21,11.07,11.07,0,0,1,7.74-3,14.9,14.9,0,0,1,7.11,1.66,8.83,8.83,0,0,1,4.74,5.72A1.46,1.46,0,0,1,826.45,52a1.35,1.35,0,0,1-1.13-.15,1.39,1.39,0,0,1-.68-.91,6.06,6.06,0,0,0-3.53-4,12.19,12.19,0,0,0-5.42-1.16A8.22,8.22,0,0,0,810,47.9a7.21,7.21,0,0,0-2.52,5.19A5.07,5.07,0,0,0,809,56.95q2.19,2.35,7,2.42a1.51,1.51,0,0,1,1.49,1.54A1.51,1.51,0,0,1,816,62.37Zm-6.66,15a8.91,8.91,0,0,1-4.74-5.75,1.5,1.5,0,0,1,.15-1.14,1.48,1.48,0,0,1,.93-.68,1.5,1.5,0,0,1,1.14.15,1.48,1.48,0,0,1,.68.91,6.13,6.13,0,0,0,3.53,4A12.41,12.41,0,0,0,816.39,76a8.22,8.22,0,0,0,5.67-2.12,7.18,7.18,0,0,0,2.52-5.17,5.1,5.1,0,0,0-1.51-3.88q-2.19-2.35-7-2.42a1.4,1.4,0,0,1-1.06-.45,1.46,1.46,0,0,1,.05-2.12,1.44,1.44,0,0,1,1.06-.43q6.05.1,9.13,3.38a7.88,7.88,0,0,1,2.29,6.05A10,10,0,0,1,824.13,76a11.07,11.07,0,0,1-7.74,3A15.07,15.07,0,0,1,809.28,77.32Z"/><path class="cls-2" d="M43.74,121.69A43.79,43.79,0,0,1,0,77.95V43.74a43.74,43.74,0,1,1,87.49,0v34.2A43.79,43.79,0,0,1,43.74,121.69Zm0-118.13A40.23,40.23,0,0,0,3.56,43.74v34.2a40.18,40.18,0,1,0,80.37,0V43.74A40.23,40.23,0,0,0,43.74,3.56Z"/><path class="cls-3" d="M77,43.42v19A17.08,17.08,0,0,0,73.42,57V43.42a29.67,29.67,0,1,0-59.33,0V49.6c0,5.89,1.55,10,4.75,12.64,5.45,4.43,5.25,12,5.23,12.35v2.65A19.51,19.51,0,1,0,43.59,57.73l-.37,0A12.81,12.81,0,1,1,56.3,43.37h2a.25.25,0,0,1,.18.41L54.71,48a.24.24,0,0,1-.36,0l-3.81-4.22a.24.24,0,0,1,.18-.41h2a9.25,9.25,0,1,0-9.38,10.79l.32,0A23.07,23.07,0,1,1,20.52,77.24V74.52c0-.12.14-6.21-3.92-9.52s-6.07-8.47-6.07-15.4V43.42a33.23,33.23,0,1,1,66.45,0Z"/><path class="cls-4" d="M77,72v6.37a33.23,33.23,0,1,1-66.45,0V59.65a17,17,0,0,0,3.56,5.45V78.33a29.67,29.67,0,1,0,59.33,0V72c0-5.89-1.55-10-4.75-12.64-5.45-4.43-5.25-12-5.23-12.34V44.33A19.51,19.51,0,1,0,43.93,63.82l.39,0A12.81,12.81,0,1,1,31.4,79.29H29.15a.25.25,0,0,1-.2-.41l3.81-4.24a.26.26,0,0,1,.37,0l3.79,4.24a.24.24,0,0,1-.18.41H35.06A9.25,9.25,0,1,0,44.19,67.4l-.32,0A23.06,23.06,0,1,1,67,44.33V47c0,.12-.14,6.23,3.92,9.52S77,65,77,72Z"/></g></g></svg>